<svg width="1040" height="497" viewBox="0 0 1040 497" fill="none" xmlns="http://www.w3.org/2000/svg">
<g clip-path="url(#clip0_140:205)">
<rect width="1040" height="525" fill="#FAFAFA"/>
<path d="M75.4688 210H64.5625V191H48.4062V210H37.4375V164.5H48.4062V182.562H64.5625V164.5H75.4688V210ZM98.3125 210.625C93.125 210.625 88.9271 209.083 85.7188 206C82.5104 202.896 80.9062 198.865 80.9062 193.906V193.031C80.9062 189.573 81.5417 186.521 82.8125 183.875C84.1042 181.229 85.9792 179.188 88.4375 177.75C90.8958 176.292 93.8125 175.562 97.1875 175.562C101.938 175.562 105.688 177.042 108.438 180C111.188 182.938 112.562 187.042 112.562 192.312V196.406H91.625C92 198.302 92.8229 199.792 94.0938 200.875C95.3646 201.958 97.0104 202.5 99.0312 202.5C102.365 202.5 104.969 201.333 106.844 199L111.656 204.688C110.344 206.5 108.479 207.948 106.062 209.031C103.667 210.094 101.083 210.625 98.3125 210.625ZM97.125 183.688C94.0417 183.688 92.2083 185.729 91.625 189.812H102.25V189C102.292 187.312 101.865 186.01 100.969 185.094C100.073 184.156 98.7917 183.688 97.125 183.688ZM129.906 195.25L135.531 176.188H146.812L133.031 215.656L132.438 217.094C130.479 221.469 127.021 223.656 122.062 223.656C120.688 223.656 119.24 223.448 117.719 223.031V215.5H119.094C120.573 215.5 121.698 215.281 122.469 214.844C123.26 214.427 123.844 213.667 124.219 212.562L125.062 210.312L113.312 176.188H124.562L129.906 195.25ZM148.031 222.25L142.719 219.75L143.781 217.625C145.24 214.917 146 212.333 146.062 209.875V202.062H154.5L154.469 208.844C154.448 211.24 153.833 213.677 152.625 216.156C151.417 218.635 149.885 220.667 148.031 222.25ZM189.688 210H178.75V164.5H189.688V210ZM231.812 210C231.438 209.312 231.104 208.302 230.812 206.969C228.875 209.406 226.167 210.625 222.688 210.625C219.5 210.625 216.792 209.667 214.562 207.75C212.333 205.812 211.219 203.385 211.219 200.469C211.219 196.802 212.573 194.031 215.281 192.156C217.99 190.281 221.927 189.344 227.094 189.344H230.344V187.562C230.344 184.458 229 182.906 226.312 182.906C223.812 182.906 222.562 184.135 222.562 186.594H212.031C212.031 183.323 213.417 180.667 216.188 178.625C218.979 176.583 222.531 175.562 226.844 175.562C231.156 175.562 234.562 176.615 237.062 178.719C239.562 180.823 240.844 183.708 240.906 187.375V202.344C240.948 205.448 241.427 207.823 242.344 209.469V210H231.812ZM225.219 203.125C226.531 203.125 227.615 202.844 228.469 202.281C229.344 201.719 229.969 201.083 230.344 200.375V194.969H227.281C223.615 194.969 221.781 196.615 221.781 199.906C221.781 200.865 222.104 201.646 222.75 202.25C223.396 202.833 224.219 203.125 225.219 203.125ZM256.719 176.188L257.062 180.156C259.458 177.094 262.677 175.562 266.719 175.562C270.99 175.562 273.875 177.26 275.375 180.656C277.667 177.26 280.979 175.562 285.312 175.562C292.167 175.562 295.688 179.708 295.875 188V210H285.312V188.656C285.312 186.927 285.021 185.667 284.438 184.875C283.854 184.083 282.792 183.688 281.25 183.688C279.167 183.688 277.615 184.615 276.594 186.469L276.625 186.906V210H266.062V188.719C266.062 186.948 265.781 185.667 265.219 184.875C264.656 184.083 263.583 183.688 262 183.688C259.979 183.688 258.438 184.615 257.375 186.469V210H246.844V176.188H256.719ZM336.875 210C336.5 209.312 336.167 208.302 335.875 206.969C333.938 209.406 331.229 210.625 327.75 210.625C324.562 210.625 321.854 209.667 319.625 207.75C317.396 205.812 316.281 203.385 316.281 200.469C316.281 196.802 317.635 194.031 320.344 192.156C323.052 190.281 326.99 189.344 332.156 189.344H335.406V187.562C335.406 184.458 334.062 182.906 331.375 182.906C328.875 182.906 327.625 184.135 327.625 186.594H317.094C317.094 183.323 318.479 180.667 321.25 178.625C324.042 176.583 327.594 175.562 331.906 175.562C336.219 175.562 339.625 176.615 342.125 178.719C344.625 180.823 345.906 183.708 345.969 187.375V202.344C346.01 205.448 346.49 207.823 347.406 209.469V210H336.875ZM330.281 203.125C331.594 203.125 332.677 202.844 333.531 202.281C334.406 201.719 335.031 201.083 335.406 200.375V194.969H332.344C328.677 194.969 326.844 196.615 326.844 199.906C326.844 200.865 327.167 201.646 327.812 202.25C328.458 202.833 329.281 203.125 330.281 203.125Z" fill="black"/>
<path d="M66.0938 266.875H48.4062V285H37.4375V239.5H67.875V247.969H48.4062V258.438H66.0938V266.875ZM91.4062 281.344C89.1771 284.198 86.1667 285.625 82.375 285.625C78.6667 285.625 75.8542 284.552 73.9375 282.406C72.0417 280.24 71.0938 277.135 71.0938 273.094V251.188H81.625V273.156C81.625 276.052 83.0312 277.5 85.8438 277.5C88.2604 277.5 89.9792 276.635 91 274.906V251.188H101.594V285H91.7188L91.4062 281.344ZM118.5 285H107.938V237H118.5V285ZM136.125 285H125.562V237H136.125V285ZM182.531 272.906C182.531 271.302 181.958 270.052 180.812 269.156C179.688 268.26 177.698 267.333 174.844 266.375C171.99 265.417 169.656 264.49 167.844 263.594C161.948 260.698 159 256.719 159 251.656C159 249.135 159.729 246.917 161.188 245C162.667 243.062 164.75 241.562 167.438 240.5C170.125 239.417 173.146 238.875 176.5 238.875C179.771 238.875 182.698 239.458 185.281 240.625C187.885 241.792 189.906 243.458 191.344 245.625C192.781 247.771 193.5 250.229 193.5 253H182.562C182.562 251.146 181.99 249.708 180.844 248.688C179.719 247.667 178.188 247.156 176.25 247.156C174.292 247.156 172.74 247.594 171.594 248.469C170.469 249.323 169.906 250.417 169.906 251.75C169.906 252.917 170.531 253.979 171.781 254.938C173.031 255.875 175.229 256.854 178.375 257.875C181.521 258.875 184.104 259.958 186.125 261.125C191.042 263.958 193.5 267.865 193.5 272.844C193.5 276.823 192 279.948 189 282.219C186 284.49 181.885 285.625 176.656 285.625C172.969 285.625 169.625 284.969 166.625 283.656C163.646 282.323 161.396 280.51 159.875 278.219C158.375 275.906 157.625 273.25 157.625 270.25H168.625C168.625 272.688 169.25 274.49 170.5 275.656C171.771 276.802 173.823 277.375 176.656 277.375C178.469 277.375 179.896 276.99 180.938 276.219C182 275.427 182.531 274.323 182.531 272.906ZM210.906 242.781V251.188H216.469V258.5H210.906V273.969C210.906 275.24 211.135 276.125 211.594 276.625C212.052 277.125 212.958 277.375 214.312 277.375C215.354 277.375 216.229 277.312 216.938 277.188V284.719C215.042 285.323 213.062 285.625 211 285.625C207.375 285.625 204.698 284.771 202.969 283.062C201.24 281.354 200.375 278.76 200.375 275.281V258.5H196.062V251.188H200.375V242.781H210.906ZM239.688 285C239.312 284.312 238.979 283.302 238.688 281.969C236.75 284.406 234.042 285.625 230.562 285.625C227.375 285.625 224.667 284.667 222.438 282.75C220.208 280.812 219.094 278.385 219.094 275.469C219.094 271.802 220.448 269.031 223.156 267.156C225.865 265.281 229.802 264.344 234.969 264.344H238.219V262.562C238.219 259.458 236.875 257.906 234.188 257.906C231.688 257.906 230.438 259.135 230.438 261.594H219.906C219.906 258.323 221.292 255.667 224.062 253.625C226.854 251.583 230.406 250.562 234.719 250.562C239.031 250.562 242.438 251.615 244.938 253.719C247.438 255.823 248.719 258.708 248.781 262.375V277.344C248.823 280.448 249.302 282.823 250.219 284.469V285H239.688ZM233.094 278.125C234.406 278.125 235.49 277.844 236.344 277.281C237.219 276.719 237.844 276.083 238.219 275.375V269.969H235.156C231.49 269.969 229.656 271.615 229.656 274.906C229.656 275.865 229.979 276.646 230.625 277.25C231.271 277.833 232.094 278.125 233.094 278.125ZM268.938 277.5C270.417 277.5 271.562 277.104 272.375 276.312C273.188 275.5 273.583 274.375 273.562 272.938H283.438C283.438 276.646 282.104 279.688 279.438 282.062C276.792 284.438 273.375 285.625 269.188 285.625C264.271 285.625 260.396 284.083 257.562 281C254.729 277.917 253.312 273.646 253.312 268.188V267.75C253.312 264.333 253.938 261.323 255.188 258.719C256.458 256.094 258.281 254.083 260.656 252.688C263.031 251.271 265.844 250.562 269.094 250.562C273.49 250.562 276.979 251.781 279.562 254.219C282.146 256.656 283.438 259.958 283.438 264.125H273.562C273.562 262.375 273.135 261.031 272.281 260.094C271.427 259.156 270.281 258.688 268.844 258.688C266.115 258.688 264.521 260.427 264.062 263.906C263.917 265.01 263.844 266.531 263.844 268.469C263.844 271.865 264.25 274.219 265.062 275.531C265.875 276.844 267.167 277.5 268.938 277.5ZM301.469 272.406L298.5 275.375V285H287.969V236.969H298.5V262.469L299.562 261.062L307.5 251.188H320.125L308.281 265.094L320.906 285H308.844L301.469 272.406ZM339.312 285V239.5H353.969C357.99 239.5 361.604 240.417 364.812 242.25C368.021 244.062 370.521 246.635 372.312 249.969C374.125 253.281 375.042 257 375.062 261.125V263.219C375.062 267.385 374.177 271.125 372.406 274.438C370.656 277.729 368.177 280.312 364.969 282.188C361.781 284.042 358.219 284.979 354.281 285H339.312ZM350.281 247.969V276.562H354.094C357.24 276.562 359.656 275.448 361.344 273.219C363.031 270.969 363.875 267.635 363.875 263.219V261.25C363.875 256.854 363.031 253.542 361.344 251.312C359.656 249.083 357.198 247.969 353.969 247.969H350.281ZM396.562 285.625C391.375 285.625 387.177 284.083 383.969 281C380.76 277.896 379.156 273.865 379.156 268.906V268.031C379.156 264.573 379.792 261.521 381.062 258.875C382.354 256.229 384.229 254.188 386.688 252.75C389.146 251.292 392.062 250.562 395.438 250.562C400.188 250.562 403.938 252.042 406.688 255C409.438 257.938 410.812 262.042 410.812 267.312V271.406H389.875C390.25 273.302 391.073 274.792 392.344 275.875C393.615 276.958 395.26 277.5 397.281 277.5C400.615 277.5 403.219 276.333 405.094 274L409.906 279.688C408.594 281.5 406.729 282.948 404.312 284.031C401.917 285.094 399.333 285.625 396.562 285.625ZM395.375 258.688C392.292 258.688 390.458 260.729 389.875 264.812H400.5V264C400.542 262.312 400.115 261.01 399.219 260.094C398.323 259.156 397.042 258.688 395.375 258.688ZM428.125 272.469L433.469 251.188H444.562L433.531 285H422.781L411.75 251.188H422.875L428.125 272.469ZM463.625 285.625C458.438 285.625 454.24 284.083 451.031 281C447.823 277.896 446.219 273.865 446.219 268.906V268.031C446.219 264.573 446.854 261.521 448.125 258.875C449.417 256.229 451.292 254.188 453.75 252.75C456.208 251.292 459.125 250.562 462.5 250.562C467.25 250.562 471 252.042 473.75 255C476.5 257.938 477.875 262.042 477.875 267.312V271.406H456.938C457.312 273.302 458.135 274.792 459.406 275.875C460.677 276.958 462.323 277.5 464.344 277.5C467.677 277.5 470.281 276.333 472.156 274L476.969 279.688C475.656 281.5 473.792 282.948 471.375 284.031C468.979 285.094 466.396 285.625 463.625 285.625ZM462.438 258.688C459.354 258.688 457.521 260.729 456.938 264.812H467.562V264C467.604 262.312 467.177 261.01 466.281 260.094C465.385 259.156 464.104 258.688 462.438 258.688ZM493.25 285H482.688V237H493.25V285ZM498.438 267.781C498.438 264.406 499.094 261.406 500.406 258.781C501.719 256.135 503.604 254.104 506.062 252.688C508.521 251.271 511.406 250.562 514.719 250.562C519.781 250.562 523.771 252.135 526.688 255.281C529.604 258.406 531.062 262.667 531.062 268.062V268.438C531.062 273.708 529.594 277.896 526.656 281C523.74 284.083 519.781 285.625 514.781 285.625C509.969 285.625 506.104 284.188 503.188 281.312C500.271 278.417 498.698 274.5 498.469 269.562L498.438 267.781ZM508.969 268.438C508.969 271.562 509.458 273.854 510.438 275.312C511.417 276.771 512.865 277.5 514.781 277.5C518.531 277.5 520.448 274.615 520.531 268.844V267.781C520.531 261.719 518.594 258.688 514.719 258.688C511.198 258.688 509.292 261.302 509 266.531L508.969 268.438ZM567.094 268.344C567.094 273.594 565.906 277.792 563.531 280.938C561.177 284.062 557.99 285.625 553.969 285.625C550.865 285.625 548.312 284.49 546.312 282.219V298H535.781V251.188H545.625L545.938 254.312C547.958 251.812 550.615 250.562 553.906 250.562C558.073 250.562 561.312 252.104 563.625 255.188C565.938 258.25 567.094 262.469 567.094 267.844V268.344ZM556.562 267.688C556.562 261.688 554.812 258.688 551.312 258.688C548.812 258.688 547.146 259.583 546.312 261.375V274.688C547.229 276.562 548.917 277.5 551.375 277.5C554.729 277.5 556.458 274.604 556.562 268.812V267.688ZM588.125 285.625C582.938 285.625 578.74 284.083 575.531 281C572.323 277.896 570.719 273.865 570.719 268.906V268.031C570.719 264.573 571.354 261.521 572.625 258.875C573.917 256.229 575.792 254.188 578.25 252.75C580.708 251.292 583.625 250.562 587 250.562C591.75 250.562 595.5 252.042 598.25 255C601 257.938 602.375 262.042 602.375 267.312V271.406H581.438C581.812 273.302 582.635 274.792 583.906 275.875C585.177 276.958 586.823 277.5 588.844 277.5C592.177 277.5 594.781 276.333 596.656 274L601.469 279.688C600.156 281.5 598.292 282.948 595.875 284.031C593.479 285.094 590.896 285.625 588.125 285.625ZM586.938 258.688C583.854 258.688 582.021 260.729 581.438 264.812H592.062V264C592.104 262.312 591.677 261.01 590.781 260.094C589.885 259.156 588.604 258.688 586.938 258.688ZM627.094 260.719L623.625 260.469C620.312 260.469 618.188 261.51 617.25 263.594V285H606.719V251.188H616.594L616.938 255.531C618.708 252.219 621.177 250.562 624.344 250.562C625.469 250.562 626.448 250.688 627.281 250.938L627.094 260.719ZM631.969 274.781C633.635 274.781 635.021 275.281 636.125 276.281C637.229 277.26 637.781 278.521 637.781 280.062C637.781 281.604 637.229 282.875 636.125 283.875C635.021 284.854 633.635 285.344 631.969 285.344C630.281 285.344 628.885 284.844 627.781 283.844C626.698 282.844 626.156 281.583 626.156 280.062C626.156 278.542 626.698 277.281 627.781 276.281C628.885 275.281 630.281 274.781 631.969 274.781Z" fill="#2ECC71"/>
<path d="M37.1816 316.62H43.2461V318H35.4854V305.203H37.1816V316.62ZM48.8623 318.176C47.5732 318.176 46.5244 317.754 45.7158 316.91C44.9072 316.061 44.5029 314.927 44.5029 313.509V313.21C44.5029 312.267 44.6816 311.426 45.0391 310.688C45.4023 309.943 45.9062 309.363 46.5508 308.947C47.2012 308.525 47.9043 308.314 48.6602 308.314C49.8965 308.314 50.8574 308.722 51.543 309.536C52.2285 310.351 52.5713 311.517 52.5713 313.034V313.711H46.1289C46.1523 314.648 46.4248 315.407 46.9463 315.987C47.4736 316.562 48.1416 316.849 48.9502 316.849C49.5244 316.849 50.0107 316.731 50.4092 316.497C50.8076 316.263 51.1562 315.952 51.4551 315.565L52.4482 316.339C51.6514 317.563 50.4561 318.176 48.8623 318.176ZM48.6602 309.65C48.0039 309.65 47.4531 309.891 47.0078 310.371C46.5625 310.846 46.2871 311.514 46.1816 312.375H50.9453V312.252C50.8984 311.426 50.6758 310.787 50.2773 310.336C49.8789 309.879 49.3398 309.65 48.6602 309.65ZM56.667 306.188V308.49H58.4424V309.747H56.667V315.645C56.667 316.025 56.7461 316.312 56.9043 316.506C57.0625 316.693 57.332 316.787 57.7129 316.787C57.9004 316.787 58.1582 316.752 58.4863 316.682V318C58.0586 318.117 57.6426 318.176 57.2383 318.176C56.5117 318.176 55.9639 317.956 55.5947 317.517C55.2256 317.077 55.041 316.453 55.041 315.645V309.747H53.3096V308.49H55.041V306.188H56.667ZM65.8867 315.478C65.8867 315.038 65.7197 314.698 65.3857 314.458C65.0576 314.212 64.4805 314.001 63.6543 313.825C62.834 313.649 62.1807 313.438 61.6943 313.192C61.2139 312.946 60.8564 312.653 60.6221 312.313C60.3936 311.974 60.2793 311.569 60.2793 311.101C60.2793 310.321 60.6074 309.662 61.2637 309.123C61.9258 308.584 62.7695 308.314 63.7949 308.314C64.873 308.314 65.7461 308.593 66.4141 309.149C67.0879 309.706 67.4248 310.418 67.4248 311.285H65.79C65.79 310.84 65.5996 310.456 65.2188 310.134C64.8438 309.812 64.3691 309.65 63.7949 309.65C63.2031 309.65 62.7402 309.779 62.4062 310.037C62.0723 310.295 61.9053 310.632 61.9053 311.048C61.9053 311.44 62.0605 311.736 62.3711 311.936C62.6816 312.135 63.2412 312.325 64.0498 312.507C64.8643 312.688 65.5234 312.905 66.0273 313.157C66.5312 313.409 66.9033 313.714 67.1436 314.071C67.3896 314.423 67.5127 314.854 67.5127 315.363C67.5127 316.213 67.1729 316.896 66.4932 317.411C65.8135 317.921 64.9316 318.176 63.8477 318.176C63.0859 318.176 62.4121 318.041 61.8262 317.771C61.2402 317.502 60.7803 317.127 60.4463 316.646C60.1182 316.16 59.9541 315.636 59.9541 315.073H61.5801C61.6094 315.618 61.8262 316.052 62.2305 316.374C62.6406 316.69 63.1797 316.849 63.8477 316.849C64.4629 316.849 64.9551 316.726 65.3242 316.479C65.6992 316.228 65.8867 315.894 65.8867 315.478ZM82.1465 313.351C82.1465 314.804 81.8125 315.973 81.1445 316.857C80.4766 317.736 79.5801 318.176 78.4551 318.176C77.2539 318.176 76.3252 317.751 75.6689 316.901L75.5898 318H74.0957V304.5H75.7217V309.536C76.3779 308.722 77.2832 308.314 78.4375 308.314C79.5918 308.314 80.4971 308.751 81.1533 309.624C81.8154 310.497 82.1465 311.692 82.1465 313.21V313.351ZM80.5205 313.166C80.5205 312.059 80.3066 311.203 79.8789 310.6C79.4512 309.996 78.8359 309.694 78.0332 309.694C76.9609 309.694 76.1904 310.192 75.7217 311.188V315.302C76.2197 316.298 76.9961 316.796 78.0508 316.796C78.8301 316.796 79.4365 316.494 79.8701 315.891C80.3037 315.287 80.5205 314.379 80.5205 313.166ZM90.0742 317.06C89.4414 317.804 88.5127 318.176 87.2881 318.176C86.2744 318.176 85.501 317.883 84.9678 317.297C84.4404 316.705 84.1738 315.832 84.168 314.678V308.49H85.7939V314.634C85.7939 316.075 86.3799 316.796 87.5518 316.796C88.7939 316.796 89.6201 316.333 90.0303 315.407V308.49H91.6562V318H90.1094L90.0742 317.06ZM95.9014 318H94.2754V308.49H95.9014V318ZM94.1436 305.968C94.1436 305.704 94.2227 305.481 94.3809 305.3C94.5449 305.118 94.7852 305.027 95.1016 305.027C95.418 305.027 95.6582 305.118 95.8223 305.3C95.9863 305.481 96.0684 305.704 96.0684 305.968C96.0684 306.231 95.9863 306.451 95.8223 306.627C95.6582 306.803 95.418 306.891 95.1016 306.891C94.7852 306.891 94.5449 306.803 94.3809 306.627C94.2227 306.451 94.1436 306.231 94.1436 305.968ZM100.278 318H98.6523V304.5H100.278V318ZM102.493 313.166C102.493 311.707 102.839 310.535 103.53 309.65C104.222 308.76 105.127 308.314 106.246 308.314C107.359 308.314 108.241 308.695 108.892 309.457V304.5H110.518V318H109.023L108.944 316.98C108.294 317.777 107.389 318.176 106.229 318.176C105.127 318.176 104.228 317.725 103.53 316.822C102.839 315.92 102.493 314.742 102.493 313.289V313.166ZM104.119 313.351C104.119 314.429 104.342 315.272 104.787 315.882C105.232 316.491 105.848 316.796 106.633 316.796C107.664 316.796 108.417 316.333 108.892 315.407V311.039C108.405 310.143 107.658 309.694 106.65 309.694C105.854 309.694 105.232 310.002 104.787 310.617C104.342 311.232 104.119 312.144 104.119 313.351ZM123.051 315.478C123.051 315.038 122.884 314.698 122.55 314.458C122.222 314.212 121.645 314.001 120.818 313.825C119.998 313.649 119.345 313.438 118.858 313.192C118.378 312.946 118.021 312.653 117.786 312.313C117.558 311.974 117.443 311.569 117.443 311.101C117.443 310.321 117.771 309.662 118.428 309.123C119.09 308.584 119.934 308.314 120.959 308.314C122.037 308.314 122.91 308.593 123.578 309.149C124.252 309.706 124.589 310.418 124.589 311.285H122.954C122.954 310.84 122.764 310.456 122.383 310.134C122.008 309.812 121.533 309.65 120.959 309.65C120.367 309.65 119.904 309.779 119.57 310.037C119.236 310.295 119.069 310.632 119.069 311.048C119.069 311.44 119.225 311.736 119.535 311.936C119.846 312.135 120.405 312.325 121.214 312.507C122.028 312.688 122.688 312.905 123.191 313.157C123.695 313.409 124.067 313.714 124.308 314.071C124.554 314.423 124.677 314.854 124.677 315.363C124.677 316.213 124.337 316.896 123.657 317.411C122.978 317.921 122.096 318.176 121.012 318.176C120.25 318.176 119.576 318.041 118.99 317.771C118.404 317.502 117.944 317.127 117.61 316.646C117.282 316.16 117.118 315.636 117.118 315.073H118.744C118.773 315.618 118.99 316.052 119.395 316.374C119.805 316.69 120.344 316.849 121.012 316.849C121.627 316.849 122.119 316.726 122.488 316.479C122.863 316.228 123.051 315.894 123.051 315.478ZM126.364 313.157C126.364 312.226 126.546 311.388 126.909 310.644C127.278 309.899 127.788 309.325 128.438 308.921C129.095 308.517 129.842 308.314 130.68 308.314C131.975 308.314 133.021 308.763 133.817 309.659C134.62 310.556 135.021 311.748 135.021 313.236V313.351C135.021 314.276 134.843 315.108 134.485 315.847C134.134 316.579 133.627 317.15 132.965 317.561C132.309 317.971 131.553 318.176 130.697 318.176C129.408 318.176 128.362 317.728 127.56 316.831C126.763 315.935 126.364 314.748 126.364 313.271V313.157ZM127.999 313.351C127.999 314.405 128.242 315.252 128.729 315.891C129.221 316.529 129.877 316.849 130.697 316.849C131.523 316.849 132.18 316.526 132.666 315.882C133.152 315.231 133.396 314.323 133.396 313.157C133.396 312.114 133.146 311.271 132.648 310.626C132.156 309.976 131.5 309.65 130.68 309.65C129.877 309.65 129.229 309.97 128.737 310.608C128.245 311.247 127.999 312.161 127.999 313.351ZM138.59 308.49L138.634 309.545C139.331 308.725 140.271 308.314 141.455 308.314C142.785 308.314 143.69 308.824 144.171 309.844C144.487 309.387 144.897 309.018 145.401 308.736C145.911 308.455 146.512 308.314 147.203 308.314C149.289 308.314 150.35 309.419 150.385 311.628V318H148.759V311.725C148.759 311.045 148.604 310.538 148.293 310.204C147.982 309.864 147.461 309.694 146.729 309.694C146.125 309.694 145.624 309.876 145.226 310.239C144.827 310.597 144.596 311.08 144.531 311.689V318H142.896V311.769C142.896 310.386 142.22 309.694 140.866 309.694C139.8 309.694 139.07 310.148 138.678 311.057V318H137.052V308.49H138.59ZM156.792 318.176C155.503 318.176 154.454 317.754 153.646 316.91C152.837 316.061 152.433 314.927 152.433 313.509V313.21C152.433 312.267 152.611 311.426 152.969 310.688C153.332 309.943 153.836 309.363 154.48 308.947C155.131 308.525 155.834 308.314 156.59 308.314C157.826 308.314 158.787 308.722 159.473 309.536C160.158 310.351 160.501 311.517 160.501 313.034V313.711H154.059C154.082 314.648 154.354 315.407 154.876 315.987C155.403 316.562 156.071 316.849 156.88 316.849C157.454 316.849 157.94 316.731 158.339 316.497C158.737 316.263 159.086 315.952 159.385 315.565L160.378 316.339C159.581 317.563 158.386 318.176 156.792 318.176ZM156.59 309.65C155.934 309.65 155.383 309.891 154.938 310.371C154.492 310.846 154.217 311.514 154.111 312.375H158.875V312.252C158.828 311.426 158.605 310.787 158.207 310.336C157.809 309.879 157.27 309.65 156.59 309.65ZM164.597 306.188V308.49H166.372V309.747H164.597V315.645C164.597 316.025 164.676 316.312 164.834 316.506C164.992 316.693 165.262 316.787 165.643 316.787C165.83 316.787 166.088 316.752 166.416 316.682V318C165.988 318.117 165.572 318.176 165.168 318.176C164.441 318.176 163.894 317.956 163.524 317.517C163.155 317.077 162.971 316.453 162.971 315.645V309.747H161.239V308.49H162.971V306.188H164.597ZM169.905 309.642C170.626 308.757 171.563 308.314 172.718 308.314C174.728 308.314 175.741 309.448 175.759 311.716V318H174.133V311.707C174.127 311.021 173.969 310.515 173.658 310.187C173.354 309.858 172.876 309.694 172.226 309.694C171.698 309.694 171.235 309.835 170.837 310.116C170.438 310.397 170.128 310.767 169.905 311.224V318H168.279V304.5H169.905V309.642ZM179.96 318H178.334V308.49H179.96V318ZM178.202 305.968C178.202 305.704 178.281 305.481 178.439 305.3C178.604 305.118 178.844 305.027 179.16 305.027C179.477 305.027 179.717 305.118 179.881 305.3C180.045 305.481 180.127 305.704 180.127 305.968C180.127 306.231 180.045 306.451 179.881 306.627C179.717 306.803 179.477 306.891 179.16 306.891C178.844 306.891 178.604 306.803 178.439 306.627C178.281 306.451 178.202 306.231 178.202 305.968ZM184.108 308.49L184.161 309.686C184.888 308.771 185.837 308.314 187.009 308.314C189.019 308.314 190.032 309.448 190.05 311.716V318H188.424V311.707C188.418 311.021 188.26 310.515 187.949 310.187C187.645 309.858 187.167 309.694 186.517 309.694C185.989 309.694 185.526 309.835 185.128 310.116C184.729 310.397 184.419 310.767 184.196 311.224V318H182.57V308.49H184.108ZM192.115 313.166C192.115 311.684 192.458 310.506 193.144 309.633C193.829 308.754 194.737 308.314 195.868 308.314C197.028 308.314 197.934 308.725 198.584 309.545L198.663 308.49H200.148V317.771C200.148 319.002 199.782 319.972 199.05 320.681C198.323 321.39 197.345 321.744 196.114 321.744C195.429 321.744 194.758 321.598 194.102 321.305C193.445 321.012 192.944 320.61 192.599 320.101L193.442 319.125C194.14 319.986 194.992 320.417 196 320.417C196.791 320.417 197.406 320.194 197.846 319.749C198.291 319.304 198.514 318.677 198.514 317.868V317.051C197.863 317.801 196.976 318.176 195.851 318.176C194.737 318.176 193.835 317.728 193.144 316.831C192.458 315.935 192.115 314.713 192.115 313.166ZM193.75 313.351C193.75 314.423 193.97 315.267 194.409 315.882C194.849 316.491 195.464 316.796 196.255 316.796C197.28 316.796 198.033 316.33 198.514 315.398V311.057C198.016 310.148 197.269 309.694 196.272 309.694C195.481 309.694 194.863 310.002 194.418 310.617C193.973 311.232 193.75 312.144 193.75 313.351ZM206.644 313.157C206.644 312.226 206.825 311.388 207.188 310.644C207.558 309.899 208.067 309.325 208.718 308.921C209.374 308.517 210.121 308.314 210.959 308.314C212.254 308.314 213.3 308.763 214.097 309.659C214.899 310.556 215.301 311.748 215.301 313.236V313.351C215.301 314.276 215.122 315.108 214.765 315.847C214.413 316.579 213.906 317.15 213.244 317.561C212.588 317.971 211.832 318.176 210.977 318.176C209.688 318.176 208.642 317.728 207.839 316.831C207.042 315.935 206.644 314.748 206.644 313.271V313.157ZM208.278 313.351C208.278 314.405 208.521 315.252 209.008 315.891C209.5 316.529 210.156 316.849 210.977 316.849C211.803 316.849 212.459 316.526 212.945 315.882C213.432 315.231 213.675 314.323 213.675 313.157C213.675 312.114 213.426 311.271 212.928 310.626C212.436 309.976 211.779 309.65 210.959 309.65C210.156 309.65 209.509 309.97 209.017 310.608C208.524 311.247 208.278 312.161 208.278 313.351ZM218.878 308.49L218.931 309.686C219.657 308.771 220.606 308.314 221.778 308.314C223.788 308.314 224.802 309.448 224.819 311.716V318H223.193V311.707C223.188 311.021 223.029 310.515 222.719 310.187C222.414 309.858 221.937 309.694 221.286 309.694C220.759 309.694 220.296 309.835 219.897 310.116C219.499 310.397 219.188 310.767 218.966 311.224V318H217.34V308.49H218.878ZM233.942 306.188V308.49H235.718V309.747H233.942V315.645C233.942 316.025 234.021 316.312 234.18 316.506C234.338 316.693 234.607 316.787 234.988 316.787C235.176 316.787 235.434 316.752 235.762 316.682V318C235.334 318.117 234.918 318.176 234.514 318.176C233.787 318.176 233.239 317.956 232.87 317.517C232.501 317.077 232.316 316.453 232.316 315.645V309.747H230.585V308.49H232.316V306.188H233.942ZM239.251 309.642C239.972 308.757 240.909 308.314 242.063 308.314C244.073 308.314 245.087 309.448 245.104 311.716V318H243.479V311.707C243.473 311.021 243.314 310.515 243.004 310.187C242.699 309.858 242.222 309.694 241.571 309.694C241.044 309.694 240.581 309.835 240.183 310.116C239.784 310.397 239.474 310.767 239.251 311.224V318H237.625V304.5H239.251V309.642ZM251.485 318.176C250.196 318.176 249.147 317.754 248.339 316.91C247.53 316.061 247.126 314.927 247.126 313.509V313.21C247.126 312.267 247.305 311.426 247.662 310.688C248.025 309.943 248.529 309.363 249.174 308.947C249.824 308.525 250.527 308.314 251.283 308.314C252.52 308.314 253.48 308.722 254.166 309.536C254.852 310.351 255.194 311.517 255.194 313.034V313.711H248.752C248.775 314.648 249.048 315.407 249.569 315.987C250.097 316.562 250.765 316.849 251.573 316.849C252.147 316.849 252.634 316.731 253.032 316.497C253.431 316.263 253.779 315.952 254.078 315.565L255.071 316.339C254.274 317.563 253.079 318.176 251.485 318.176ZM251.283 309.65C250.627 309.65 250.076 309.891 249.631 310.371C249.186 310.846 248.91 311.514 248.805 312.375H253.568V312.252C253.521 311.426 253.299 310.787 252.9 310.336C252.502 309.879 251.963 309.65 251.283 309.65ZM269.969 315.759L271.797 308.49H273.423L270.654 318H269.336L267.024 310.793L264.774 318H263.456L260.696 308.49H262.313L264.186 315.609L266.4 308.49H267.71L269.969 315.759ZM279.03 318.176C277.741 318.176 276.692 317.754 275.884 316.91C275.075 316.061 274.671 314.927 274.671 313.509V313.21C274.671 312.267 274.85 311.426 275.207 310.688C275.57 309.943 276.074 309.363 276.719 308.947C277.369 308.525 278.072 308.314 278.828 308.314C280.064 308.314 281.025 308.722 281.711 309.536C282.396 310.351 282.739 311.517 282.739 313.034V313.711H276.297C276.32 314.648 276.593 315.407 277.114 315.987C277.642 316.562 278.31 316.849 279.118 316.849C279.692 316.849 280.179 316.731 280.577 316.497C280.976 316.263 281.324 315.952 281.623 315.565L282.616 316.339C281.819 317.563 280.624 318.176 279.03 318.176ZM278.828 309.65C278.172 309.65 277.621 309.891 277.176 310.371C276.73 310.846 276.455 311.514 276.35 312.375H281.113V312.252C281.066 311.426 280.844 310.787 280.445 310.336C280.047 309.879 279.508 309.65 278.828 309.65ZM292.68 313.351C292.68 314.804 292.346 315.973 291.678 316.857C291.01 317.736 290.113 318.176 288.988 318.176C287.787 318.176 286.858 317.751 286.202 316.901L286.123 318H284.629V304.5H286.255V309.536C286.911 308.722 287.816 308.314 288.971 308.314C290.125 308.314 291.03 308.751 291.687 309.624C292.349 310.497 292.68 311.692 292.68 313.21V313.351ZM291.054 313.166C291.054 312.059 290.84 311.203 290.412 310.6C289.984 309.996 289.369 309.694 288.566 309.694C287.494 309.694 286.724 310.192 286.255 311.188V315.302C286.753 316.298 287.529 316.796 288.584 316.796C289.363 316.796 289.97 316.494 290.403 315.891C290.837 315.287 291.054 314.379 291.054 313.166ZM301.407 306.188V308.49H303.183V309.747H301.407V315.645C301.407 316.025 301.486 316.312 301.645 316.506C301.803 316.693 302.072 316.787 302.453 316.787C302.641 316.787 302.898 316.752 303.227 316.682V318C302.799 318.117 302.383 318.176 301.979 318.176C301.252 318.176 300.704 317.956 300.335 317.517C299.966 317.077 299.781 316.453 299.781 315.645V309.747H298.05V308.49H299.781V306.188H301.407ZM304.483 313.157C304.483 312.226 304.665 311.388 305.028 310.644C305.397 309.899 305.907 309.325 306.558 308.921C307.214 308.517 307.961 308.314 308.799 308.314C310.094 308.314 311.14 308.763 311.937 309.659C312.739 310.556 313.141 311.748 313.141 313.236V313.351C313.141 314.276 312.962 315.108 312.604 315.847C312.253 316.579 311.746 317.15 311.084 317.561C310.428 317.971 309.672 318.176 308.816 318.176C307.527 318.176 306.481 317.728 305.679 316.831C304.882 315.935 304.483 314.748 304.483 313.271V313.157ZM306.118 313.351C306.118 314.405 306.361 315.252 306.848 315.891C307.34 316.529 307.996 316.849 308.816 316.849C309.643 316.849 310.299 316.526 310.785 315.882C311.271 315.231 311.515 314.323 311.515 313.157C311.515 312.114 311.266 311.271 310.768 310.626C310.275 309.976 309.619 309.65 308.799 309.65C307.996 309.65 307.349 309.97 306.856 310.608C306.364 311.247 306.118 312.161 306.118 313.351ZM314.793 313.166C314.793 311.684 315.136 310.506 315.821 309.633C316.507 308.754 317.415 308.314 318.546 308.314C319.706 308.314 320.611 308.725 321.262 309.545L321.341 308.49H322.826V317.771C322.826 319.002 322.46 319.972 321.728 320.681C321.001 321.39 320.022 321.744 318.792 321.744C318.106 321.744 317.436 321.598 316.779 321.305C316.123 321.012 315.622 320.61 315.276 320.101L316.12 319.125C316.817 319.986 317.67 320.417 318.678 320.417C319.469 320.417 320.084 320.194 320.523 319.749C320.969 319.304 321.191 318.677 321.191 317.868V317.051C320.541 317.801 319.653 318.176 318.528 318.176C317.415 318.176 316.513 317.728 315.821 316.831C315.136 315.935 314.793 314.713 314.793 313.166ZM316.428 313.351C316.428 314.423 316.647 315.267 317.087 315.882C317.526 316.491 318.142 316.796 318.933 316.796C319.958 316.796 320.711 316.33 321.191 315.398V311.057C320.693 310.148 319.946 309.694 318.95 309.694C318.159 309.694 317.541 310.002 317.096 310.617C316.65 311.232 316.428 312.144 316.428 313.351ZM329.233 318.176C327.944 318.176 326.896 317.754 326.087 316.91C325.278 316.061 324.874 314.927 324.874 313.509V313.21C324.874 312.267 325.053 311.426 325.41 310.688C325.773 309.943 326.277 309.363 326.922 308.947C327.572 308.525 328.275 308.314 329.031 308.314C330.268 308.314 331.229 308.722 331.914 309.536C332.6 310.351 332.942 311.517 332.942 313.034V313.711H326.5C326.523 314.648 326.796 315.407 327.317 315.987C327.845 316.562 328.513 316.849 329.321 316.849C329.896 316.849 330.382 316.731 330.78 316.497C331.179 316.263 331.527 315.952 331.826 315.565L332.819 316.339C332.022 317.563 330.827 318.176 329.233 318.176ZM329.031 309.65C328.375 309.65 327.824 309.891 327.379 310.371C326.934 310.846 326.658 311.514 326.553 312.375H331.316V312.252C331.27 311.426 331.047 310.787 330.648 310.336C330.25 309.879 329.711 309.65 329.031 309.65ZM337.038 306.188V308.49H338.813V309.747H337.038V315.645C337.038 316.025 337.117 316.312 337.275 316.506C337.434 316.693 337.703 316.787 338.084 316.787C338.271 316.787 338.529 316.752 338.857 316.682V318C338.43 318.117 338.014 318.176 337.609 318.176C336.883 318.176 336.335 317.956 335.966 317.517C335.597 317.077 335.412 316.453 335.412 315.645V309.747H333.681V308.49H335.412V306.188H337.038ZM342.347 309.642C343.067 308.757 344.005 308.314 345.159 308.314C347.169 308.314 348.183 309.448 348.2 311.716V318H346.574V311.707C346.568 311.021 346.41 310.515 346.1 310.187C345.795 309.858 345.317 309.694 344.667 309.694C344.14 309.694 343.677 309.835 343.278 310.116C342.88 310.397 342.569 310.767 342.347 311.224V318H340.721V304.5H342.347V309.642ZM354.581 318.176C353.292 318.176 352.243 317.754 351.435 316.91C350.626 316.061 350.222 314.927 350.222 313.509V313.21C350.222 312.267 350.4 311.426 350.758 310.688C351.121 309.943 351.625 309.363 352.27 308.947C352.92 308.525 353.623 308.314 354.379 308.314C355.615 308.314 356.576 308.722 357.262 309.536C357.947 310.351 358.29 311.517 358.29 313.034V313.711H351.848C351.871 314.648 352.144 315.407 352.665 315.987C353.192 316.562 353.86 316.849 354.669 316.849C355.243 316.849 355.729 316.731 356.128 316.497C356.526 316.263 356.875 315.952 357.174 315.565L358.167 316.339C357.37 317.563 356.175 318.176 354.581 318.176ZM354.379 309.65C353.723 309.65 353.172 309.891 352.727 310.371C352.281 310.846 352.006 311.514 351.9 312.375H356.664V312.252C356.617 311.426 356.395 310.787 355.996 310.336C355.598 309.879 355.059 309.65 354.379 309.65ZM364.776 309.949C364.53 309.908 364.264 309.888 363.977 309.888C362.91 309.888 362.187 310.342 361.806 311.25V318H360.18V308.49H361.762L361.788 309.589C362.321 308.739 363.077 308.314 364.056 308.314C364.372 308.314 364.612 308.355 364.776 308.438V309.949ZM365.225 317.147C365.225 316.866 365.307 316.632 365.471 316.444C365.641 316.257 365.893 316.163 366.227 316.163C366.561 316.163 366.812 316.257 366.982 316.444C367.158 316.632 367.246 316.866 367.246 317.147C367.246 317.417 367.158 317.643 366.982 317.824C366.812 318.006 366.561 318.097 366.227 318.097C365.893 318.097 365.641 318.006 365.471 317.824C365.307 317.643 365.225 317.417 365.225 317.147ZM384.068 313.939C383.91 315.293 383.409 316.339 382.565 317.077C381.728 317.81 380.611 318.176 379.217 318.176C377.705 318.176 376.492 317.634 375.578 316.55C374.67 315.466 374.216 314.016 374.216 312.199V310.969C374.216 309.779 374.427 308.733 374.849 307.831C375.276 306.929 375.88 306.237 376.659 305.757C377.438 305.271 378.341 305.027 379.366 305.027C380.726 305.027 381.815 305.408 382.636 306.17C383.456 306.926 383.934 307.975 384.068 309.316H382.372C382.226 308.297 381.906 307.559 381.414 307.102C380.928 306.645 380.245 306.416 379.366 306.416C378.288 306.416 377.441 306.814 376.826 307.611C376.217 308.408 375.912 309.542 375.912 311.013V312.252C375.912 313.641 376.202 314.745 376.782 315.565C377.362 316.386 378.174 316.796 379.217 316.796C380.154 316.796 380.872 316.585 381.37 316.163C381.874 315.735 382.208 314.994 382.372 313.939H384.068ZM385.694 313.157C385.694 312.226 385.876 311.388 386.239 310.644C386.608 309.899 387.118 309.325 387.769 308.921C388.425 308.517 389.172 308.314 390.01 308.314C391.305 308.314 392.351 308.763 393.147 309.659C393.95 310.556 394.352 311.748 394.352 313.236V313.351C394.352 314.276 394.173 315.108 393.815 315.847C393.464 316.579 392.957 317.15 392.295 317.561C391.639 317.971 390.883 318.176 390.027 318.176C388.738 318.176 387.692 317.728 386.89 316.831C386.093 315.935 385.694 314.748 385.694 313.271V313.157ZM387.329 313.351C387.329 314.405 387.572 315.252 388.059 315.891C388.551 316.529 389.207 316.849 390.027 316.849C390.854 316.849 391.51 316.526 391.996 315.882C392.482 315.231 392.726 314.323 392.726 313.157C392.726 312.114 392.477 311.271 391.979 310.626C391.486 309.976 390.83 309.65 390.01 309.65C389.207 309.65 388.56 309.97 388.067 310.608C387.575 311.247 387.329 312.161 387.329 313.351ZM397.92 308.49L397.964 309.545C398.661 308.725 399.602 308.314 400.785 308.314C402.115 308.314 403.021 308.824 403.501 309.844C403.817 309.387 404.228 309.018 404.731 308.736C405.241 308.455 405.842 308.314 406.533 308.314C408.619 308.314 409.68 309.419 409.715 311.628V318H408.089V311.725C408.089 311.045 407.934 310.538 407.623 310.204C407.312 309.864 406.791 309.694 406.059 309.694C405.455 309.694 404.954 309.876 404.556 310.239C404.157 310.597 403.926 311.08 403.861 311.689V318H402.227V311.769C402.227 310.386 401.55 309.694 400.196 309.694C399.13 309.694 398.4 310.148 398.008 311.057V318H396.382V308.49H397.92ZM416.122 318.176C414.833 318.176 413.784 317.754 412.976 316.91C412.167 316.061 411.763 314.927 411.763 313.509V313.21C411.763 312.267 411.941 311.426 412.299 310.688C412.662 309.943 413.166 309.363 413.811 308.947C414.461 308.525 415.164 308.314 415.92 308.314C417.156 308.314 418.117 308.722 418.803 309.536C419.488 310.351 419.831 311.517 419.831 313.034V313.711H413.389C413.412 314.648 413.685 315.407 414.206 315.987C414.733 316.562 415.401 316.849 416.21 316.849C416.784 316.849 417.271 316.731 417.669 316.497C418.067 316.263 418.416 315.952 418.715 315.565L419.708 316.339C418.911 317.563 417.716 318.176 416.122 318.176ZM415.92 309.65C415.264 309.65 414.713 309.891 414.268 310.371C413.822 310.846 413.547 311.514 413.441 312.375H418.205V312.252C418.158 311.426 417.936 310.787 417.537 310.336C417.139 309.879 416.6 309.65 415.92 309.65ZM41.1016 338.06C40.4688 338.804 39.54 339.176 38.3154 339.176C37.3018 339.176 36.5283 338.883 35.9951 338.297C35.4678 337.705 35.2012 336.832 35.1953 335.678V329.49H36.8213V335.634C36.8213 337.075 37.4072 337.796 38.5791 337.796C39.8213 337.796 40.6475 337.333 41.0576 336.407V329.49H42.6836V339H41.1367L41.1016 338.06ZM53.1953 334.351C53.1953 335.798 52.8643 336.964 52.2021 337.849C51.54 338.733 50.6436 339.176 49.5127 339.176C48.3584 339.176 47.4502 338.81 46.7881 338.077V342.656H45.1621V329.49H46.6475L46.7266 330.545C47.3887 329.725 48.3086 329.314 49.4863 329.314C50.6289 329.314 51.5312 329.745 52.1934 330.606C52.8613 331.468 53.1953 332.666 53.1953 334.201V334.351ZM51.5693 334.166C51.5693 333.094 51.3408 332.247 50.8838 331.626C50.4268 331.005 49.7998 330.694 49.0029 330.694C48.0186 330.694 47.2803 331.131 46.7881 332.004V336.548C47.2744 337.415 48.0186 337.849 49.0205 337.849C49.7998 337.849 50.418 337.541 50.875 336.926C51.3379 336.305 51.5693 335.385 51.5693 334.166ZM68.1543 336.759L69.9824 329.49H71.6084L68.8398 339H67.5215L65.21 331.793L62.96 339H61.6416L58.8818 329.49H60.499L62.3711 336.609L64.5859 329.49H65.8955L68.1543 336.759ZM75.0361 339H73.4102V329.49H75.0361V339ZM73.2783 326.968C73.2783 326.704 73.3574 326.481 73.5156 326.3C73.6797 326.118 73.9199 326.027 74.2363 326.027C74.5527 326.027 74.793 326.118 74.957 326.3C75.1211 326.481 75.2031 326.704 75.2031 326.968C75.2031 327.231 75.1211 327.451 74.957 327.627C74.793 327.803 74.5527 327.891 74.2363 327.891C73.9199 327.891 73.6797 327.803 73.5156 327.627C73.3574 327.451 73.2783 327.231 73.2783 326.968ZM79.8525 327.188V329.49H81.6279V330.747H79.8525V336.645C79.8525 337.025 79.9316 337.312 80.0898 337.506C80.248 337.693 80.5176 337.787 80.8984 337.787C81.0859 337.787 81.3438 337.752 81.6719 337.682V339C81.2441 339.117 80.8281 339.176 80.4238 339.176C79.6973 339.176 79.1494 338.956 78.7803 338.517C78.4111 338.077 78.2266 337.453 78.2266 336.645V330.747H76.4951V329.49H78.2266V327.188H79.8525ZM85.1611 330.642C85.8818 329.757 86.8193 329.314 87.9736 329.314C89.9834 329.314 90.9971 330.448 91.0146 332.716V339H89.3887V332.707C89.3828 332.021 89.2246 331.515 88.9141 331.187C88.6094 330.858 88.1318 330.694 87.4814 330.694C86.9541 330.694 86.4912 330.835 86.0928 331.116C85.6943 331.397 85.3838 331.767 85.1611 332.224V339H83.5352V325.5H85.1611V330.642ZM101.025 336.618L103.24 329.49H104.98L101.157 340.468C100.565 342.05 99.625 342.841 98.3359 342.841L98.0283 342.814L97.4219 342.7V341.382L97.8613 341.417C98.4121 341.417 98.8398 341.306 99.1445 341.083C99.4551 340.86 99.71 340.453 99.9092 339.861L100.27 338.895L96.877 329.49H98.6523L101.025 336.618ZM105.868 334.157C105.868 333.226 106.05 332.388 106.413 331.644C106.782 330.899 107.292 330.325 107.942 329.921C108.599 329.517 109.346 329.314 110.184 329.314C111.479 329.314 112.524 329.763 113.321 330.659C114.124 331.556 114.525 332.748 114.525 334.236V334.351C114.525 335.276 114.347 336.108 113.989 336.847C113.638 337.579 113.131 338.15 112.469 338.561C111.812 338.971 111.057 339.176 110.201 339.176C108.912 339.176 107.866 338.728 107.063 337.831C106.267 336.935 105.868 335.748 105.868 334.271V334.157ZM107.503 334.351C107.503 335.405 107.746 336.252 108.232 336.891C108.725 337.529 109.381 337.849 110.201 337.849C111.027 337.849 111.684 337.526 112.17 336.882C112.656 336.231 112.899 335.323 112.899 334.157C112.899 333.114 112.65 332.271 112.152 331.626C111.66 330.976 111.004 330.65 110.184 330.65C109.381 330.65 108.733 330.97 108.241 331.608C107.749 332.247 107.503 333.161 107.503 334.351ZM122.436 338.06C121.803 338.804 120.874 339.176 119.649 339.176C118.636 339.176 117.862 338.883 117.329 338.297C116.802 337.705 116.535 336.832 116.529 335.678V329.49H118.155V335.634C118.155 337.075 118.741 337.796 119.913 337.796C121.155 337.796 121.981 337.333 122.392 336.407V329.49H124.018V339H122.471L122.436 338.06ZM131.093 330.949C130.847 330.908 130.58 330.888 130.293 330.888C129.227 330.888 128.503 331.342 128.122 332.25V339H126.496V329.49H128.078L128.104 330.589C128.638 329.739 129.394 329.314 130.372 329.314C130.688 329.314 130.929 329.355 131.093 329.438V330.949ZM138.827 339H137.201V329.49H138.827V339ZM137.069 326.968C137.069 326.704 137.148 326.481 137.307 326.3C137.471 326.118 137.711 326.027 138.027 326.027C138.344 326.027 138.584 326.118 138.748 326.3C138.912 326.481 138.994 326.704 138.994 326.968C138.994 327.231 138.912 327.451 138.748 327.627C138.584 327.803 138.344 327.891 138.027 327.891C137.711 327.891 137.471 327.803 137.307 327.627C137.148 327.451 137.069 327.231 137.069 326.968ZM141.042 334.166C141.042 332.707 141.388 331.535 142.079 330.65C142.771 329.76 143.676 329.314 144.795 329.314C145.908 329.314 146.79 329.695 147.44 330.457V325.5H149.066V339H147.572L147.493 337.98C146.843 338.777 145.938 339.176 144.777 339.176C143.676 339.176 142.776 338.725 142.079 337.822C141.388 336.92 141.042 335.742 141.042 334.289V334.166ZM142.668 334.351C142.668 335.429 142.891 336.272 143.336 336.882C143.781 337.491 144.396 337.796 145.182 337.796C146.213 337.796 146.966 337.333 147.44 336.407V332.039C146.954 331.143 146.207 330.694 145.199 330.694C144.402 330.694 143.781 331.002 143.336 331.617C142.891 332.232 142.668 333.144 142.668 334.351ZM155.544 339.176C154.255 339.176 153.206 338.754 152.397 337.91C151.589 337.061 151.185 335.927 151.185 334.509V334.21C151.185 333.267 151.363 332.426 151.721 331.688C152.084 330.943 152.588 330.363 153.232 329.947C153.883 329.525 154.586 329.314 155.342 329.314C156.578 329.314 157.539 329.722 158.225 330.536C158.91 331.351 159.253 332.517 159.253 334.034V334.711H152.811C152.834 335.648 153.106 336.407 153.628 336.987C154.155 337.562 154.823 337.849 155.632 337.849C156.206 337.849 156.692 337.731 157.091 337.497C157.489 337.263 157.838 336.952 158.137 336.565L159.13 337.339C158.333 338.563 157.138 339.176 155.544 339.176ZM155.342 330.65C154.686 330.65 154.135 330.891 153.689 331.371C153.244 331.846 152.969 332.514 152.863 333.375H157.627V333.252C157.58 332.426 157.357 331.787 156.959 331.336C156.561 330.879 156.021 330.65 155.342 330.65ZM167.014 339C166.92 338.812 166.844 338.479 166.785 337.998C166.029 338.783 165.127 339.176 164.078 339.176C163.141 339.176 162.37 338.912 161.767 338.385C161.169 337.852 160.87 337.178 160.87 336.363C160.87 335.373 161.245 334.605 161.995 334.061C162.751 333.51 163.812 333.234 165.177 333.234H166.759V332.487C166.759 331.919 166.589 331.468 166.249 331.134C165.909 330.794 165.408 330.624 164.746 330.624C164.166 330.624 163.68 330.771 163.287 331.063C162.895 331.356 162.698 331.711 162.698 332.127H161.063C161.063 331.652 161.23 331.195 161.564 330.756C161.904 330.311 162.361 329.959 162.936 329.701C163.516 329.443 164.151 329.314 164.843 329.314C165.938 329.314 166.797 329.59 167.418 330.141C168.039 330.686 168.361 331.438 168.385 332.399V336.776C168.385 337.649 168.496 338.344 168.719 338.859V339H167.014ZM164.315 337.761C164.825 337.761 165.309 337.629 165.766 337.365C166.223 337.102 166.554 336.759 166.759 336.337V334.386H165.484C163.492 334.386 162.496 334.969 162.496 336.135C162.496 336.645 162.666 337.043 163.006 337.33C163.346 337.617 163.782 337.761 164.315 337.761ZM176.471 336.478C176.471 336.038 176.304 335.698 175.97 335.458C175.642 335.212 175.064 335.001 174.238 334.825C173.418 334.649 172.765 334.438 172.278 334.192C171.798 333.946 171.44 333.653 171.206 333.313C170.978 332.974 170.863 332.569 170.863 332.101C170.863 331.321 171.191 330.662 171.848 330.123C172.51 329.584 173.354 329.314 174.379 329.314C175.457 329.314 176.33 329.593 176.998 330.149C177.672 330.706 178.009 331.418 178.009 332.285H176.374C176.374 331.84 176.184 331.456 175.803 331.134C175.428 330.812 174.953 330.65 174.379 330.65C173.787 330.65 173.324 330.779 172.99 331.037C172.656 331.295 172.489 331.632 172.489 332.048C172.489 332.44 172.645 332.736 172.955 332.936C173.266 333.135 173.825 333.325 174.634 333.507C175.448 333.688 176.107 333.905 176.611 334.157C177.115 334.409 177.487 334.714 177.728 335.071C177.974 335.423 178.097 335.854 178.097 336.363C178.097 337.213 177.757 337.896 177.077 338.411C176.397 338.921 175.516 339.176 174.432 339.176C173.67 339.176 172.996 339.041 172.41 338.771C171.824 338.502 171.364 338.127 171.03 337.646C170.702 337.16 170.538 336.636 170.538 336.073H172.164C172.193 336.618 172.41 337.052 172.814 337.374C173.225 337.69 173.764 337.849 174.432 337.849C175.047 337.849 175.539 337.726 175.908 337.479C176.283 337.228 176.471 336.894 176.471 336.478ZM180.25 338.147C180.25 337.866 180.332 337.632 180.496 337.444C180.666 337.257 180.918 337.163 181.252 337.163C181.586 337.163 181.838 337.257 182.008 337.444C182.184 337.632 182.271 337.866 182.271 338.147C182.271 338.417 182.184 338.643 182.008 338.824C181.838 339.006 181.586 339.097 181.252 339.097C180.918 339.097 180.666 339.006 180.496 338.824C180.332 338.643 180.25 338.417 180.25 338.147Z" fill="black"/>
<g clip-path="url(#clip1_140:205)">
<path d="M164.627 418.429C183.789 417.334 203.636 425.19 217.998 438.009C232.196 450.572 241.073 468.353 250.79 486.318C260.252 504.447 270.462 523.18 272.121 543.785C274.201 564.482 267.73 587.052 253.559 601.558C239.133 616.229 216.843 622.581 196.348 622.725C175.854 622.869 157.156 616.804 141.017 609.098C124.879 601.391 110.787 592.372 90.7421 581.392C70.4418 570.577 44.097 558.221 35.2391 539.344C25.9612 520.374 34.17 494.884 49.3305 476.853C64.2351 458.986 86.3472 448.414 106.76 438.572C126.753 428.637 145.557 419.103 164.627 418.429Z" fill="url(#paint0_linear_140:205)" fill-opacity="0.2"/>
</g>
<path d="M661.132 330.001C667.241 333.927 669.201 343.635 671.161 352.034C673.005 360.542 674.849 367.74 673.581 374.285C672.428 380.938 668.164 387.047 663.668 394.136C659.057 401.117 654.332 409.08 647.761 410.607C641.076 412.025 632.776 407.007 624.362 403.844C615.947 400.79 607.533 399.481 600.732 395.227C593.931 390.864 588.629 383.556 588.053 375.921C587.476 368.286 591.741 360.323 595.199 351.707C598.657 343.09 601.539 333.818 607.879 330.001C614.334 326.292 624.477 328.037 634.621 328.037C644.764 328.037 655.023 326.074 661.132 330.001Z" fill="url(#paint1_linear_140:205)" fill-opacity="0.2"/>
<g clip-path="url(#clip2_140:205)">
<path d="M598.389 156.079C596.579 171.479 587.552 186.171 575.343 195.805C563.361 205.344 547.972 209.919 532.318 215.137C516.57 220.129 500.237 225.632 483.61 224.07C466.851 222.829 449.799 214.523 440.239 201.218C430.584 187.687 428.649 169.063 431.402 152.737C434.155 136.41 441.596 122.382 449.985 110.619C458.375 98.8558 467.523 88.9053 479.063 74.4929C490.508 59.854 504.025 40.6213 520.284 36.2144C536.675 31.4862 555.808 41.5838 568.034 56.1689C580.165 70.5275 585.482 89.6001 590.458 107.219C595.565 124.516 600.52 140.812 598.389 156.079Z" fill="url(#paint2_linear_140:205)" fill-opacity="0.2"/>
</g>
</g>
<defs>
<linearGradient id="paint0_linear_140:205" x1="127.668" y1="684.032" x2="199.072" y2="386.418" gradientUnits="userSpaceOnUse">
<stop stop-color="#2ECC71"/>
<stop offset="1" stop-color="#2ECC71"/>
</linearGradient>
<linearGradient id="paint1_linear_140:205" x1="588" y1="410.853" x2="671.265" y2="324.897" gradientUnits="userSpaceOnUse">
<stop stop-color="#2ECC71"/>
<stop offset="1" stop-color="#2ECC71"/>
</linearGradient>
<linearGradient id="paint2_linear_140:205" x1="392.231" y1="89.5137" x2="619.04" y2="187.964" gradientUnits="userSpaceOnUse">
<stop stop-color="#2ECC71"/>
<stop offset="1" stop-color="#2ECC71"/>
</linearGradient>
<clipPath id="clip0_140:205">
<rect width="1040" height="497" fill="white"/>
</clipPath>
<clipPath id="clip1_140:205">
<rect width="304" height="304" fill="white" transform="translate(-46 479.131) rotate(-32.6771)"/>
</clipPath>
<clipPath id="clip2_140:205">
<rect width="245.59" height="245.59" fill="white" transform="translate(579.559 -20) rotate(67.2955)"/>
</clipPath>
</defs>
</svg>
