<svg width="1040" height="497" viewBox="0 0 1040 497" fill="none" xmlns="http://www.w3.org/2000/svg">
<g clip-path="url(#clip0_140:205)">
<rect width="1040" height="525" fill="#FAFAFA"/>
<g clip-path="url(#clip1_140:205)">
<path d="M164.627 418.429C183.789 417.334 203.636 425.19 217.998 438.009C232.196 450.572 241.073 468.353 250.79 486.318C260.252 504.447 270.462 523.18 272.121 543.785C274.201 564.482 267.73 587.052 253.559 601.558C239.133 616.229 216.843 622.581 196.348 622.725C175.854 622.869 157.156 616.804 141.017 609.098C124.879 601.391 110.787 592.372 90.7421 581.392C70.4418 570.577 44.097 558.221 35.2391 539.344C25.9612 520.374 34.17 494.884 49.3305 476.853C64.2351 458.986 86.3472 448.414 106.76 438.572C126.753 428.637 145.557 419.103 164.627 418.429Z" fill="url(#paint0_linear_140:205)" fill-opacity="0.2"/>
</g>
<path d="M661.132 330.001C667.241 333.927 669.201 343.635 671.161 352.034C673.005 360.542 674.849 367.74 673.581 374.285C672.428 380.938 668.164 387.047 663.668 394.136C659.057 401.117 654.332 409.08 647.761 410.607C641.076 412.025 632.776 407.007 624.362 403.844C615.947 400.79 607.533 399.481 600.732 395.227C593.931 390.864 588.629 383.556 588.053 375.921C587.476 368.286 591.741 360.323 595.199 351.707C598.657 343.09 601.539 333.818 607.879 330.001C614.334 326.292 624.477 328.037 634.621 328.037C644.764 328.037 655.023 326.074 661.132 330.001Z" fill="url(#paint1_linear_140:205)" fill-opacity="0.2"/>
<g clip-path="url(#clip2_140:205)">
<path d="M598.389 156.079C596.579 171.479 587.552 186.171 575.343 195.805C563.361 205.344 547.972 209.919 532.318 215.137C516.57 220.129 500.237 225.632 483.61 224.07C466.851 222.829 449.799 214.523 440.239 201.218C430.584 187.687 428.649 169.063 431.402 152.737C434.155 136.41 441.596 122.382 449.985 110.619C458.375 98.8558 467.523 88.9053 479.063 74.4929C490.508 59.854 504.025 40.6213 520.284 36.2144C536.675 31.4862 555.808 41.5838 568.034 56.1689C580.165 70.5275 585.482 89.6001 590.458 107.219C595.565 124.516 600.52 140.812 598.389 156.079Z" fill="url(#paint2_linear_140:205)" fill-opacity="0.2"/>
</g>
</g>
<defs>
<linearGradient id="paint0_linear_140:205" x1="127.668" y1="684.032" x2="199.072" y2="386.418" gradientUnits="userSpaceOnUse">
<stop stop-color="#2ECC71"/>
<stop offset="1" stop-color="#2ECC71"/>
</linearGradient>
<linearGradient id="paint1_linear_140:205" x1="588" y1="410.853" x2="671.265" y2="324.897" gradientUnits="userSpaceOnUse">
<stop stop-color="#2ECC71"/>
<stop offset="1" stop-color="#2ECC71"/>
</linearGradient>
<linearGradient id="paint2_linear_140:205" x1="392.231" y1="89.5137" x2="619.04" y2="187.964" gradientUnits="userSpaceOnUse">
<stop stop-color="#2ECC71"/>
<stop offset="1" stop-color="#2ECC71"/>
</linearGradient>
<clipPath id="clip0_140:205">
<rect width="1040" height="497" fill="white"/>
</clipPath>
<clipPath id="clip1_140:205">
<rect width="304" height="304" fill="white" transform="translate(-46 479.131) rotate(-32.6771)"/>
</clipPath>
<clipPath id="clip2_140:205">
<rect width="245.59" height="245.59" fill="white" transform="translate(579.559 -20) rotate(67.2955)"/>
</clipPath>
</defs>
</svg>
