<svg width="601" height="134" viewBox="0 0 601 134" fill="none" xmlns="http://www.w3.org/2000/svg">
<path d="M38.4688 46H27.5625V27H11.4062V46H0.4375V0.5H11.4062V18.5625H27.5625V0.5H38.4688V46ZM61.3125 46.625C56.125 46.625 51.9271 45.0833 48.7188 42C45.5104 38.8958 43.9062 34.8646 43.9062 29.9062V29.0312C43.9062 25.5729 44.5417 22.5208 45.8125 19.875C47.1042 17.2292 48.9792 15.1875 51.4375 13.75C53.8958 12.2917 56.8125 11.5625 60.1875 11.5625C64.9375 11.5625 68.6875 13.0417 71.4375 16C74.1875 18.9375 75.5625 23.0417 75.5625 28.3125V32.4062H54.625C55 34.3021 55.8229 35.7917 57.0938 36.875C58.3646 37.9583 60.0104 38.5 62.0312 38.5C65.3646 38.5 67.9688 37.3333 69.8438 35L74.6562 40.6875C73.3438 42.5 71.4792 43.9479 69.0625 45.0312C66.6667 46.0938 64.0833 46.625 61.3125 46.625ZM60.125 19.6875C57.0417 19.6875 55.2083 21.7292 54.625 25.8125H65.25V25C65.2917 23.3125 64.8646 22.0104 63.9688 21.0938C63.0729 20.1562 61.7917 19.6875 60.125 19.6875ZM92.9062 31.25L98.5312 12.1875H109.812L96.0312 51.6562L95.4375 53.0938C93.4792 57.4688 90.0208 59.6562 85.0625 59.6562C83.6875 59.6562 82.2396 59.4479 80.7188 59.0312V51.5H82.0938C83.5729 51.5 84.6979 51.2812 85.4688 50.8438C86.2604 50.4271 86.8438 49.6667 87.2188 48.5625L88.0625 46.3125L76.3125 12.1875H87.5625L92.9062 31.25ZM111.031 58.25L105.719 55.75L106.781 53.625C108.24 50.9167 109 48.3333 109.062 45.875V38.0625H117.5L117.469 44.8438C117.448 47.2396 116.833 49.6771 115.625 52.1562C114.417 54.6354 112.885 56.6667 111.031 58.25ZM152.688 46H141.75V0.5H152.688V46ZM194.812 46C194.438 45.3125 194.104 44.3021 193.812 42.9688C191.875 45.4062 189.167 46.625 185.688 46.625C182.5 46.625 179.792 45.6667 177.562 43.75C175.333 41.8125 174.219 39.3854 174.219 36.4688C174.219 32.8021 175.573 30.0312 178.281 28.1562C180.99 26.2812 184.927 25.3438 190.094 25.3438H193.344V23.5625C193.344 20.4583 192 18.9062 189.312 18.9062C186.812 18.9062 185.562 20.1354 185.562 22.5938H175.031C175.031 19.3229 176.417 16.6667 179.188 14.625C181.979 12.5833 185.531 11.5625 189.844 11.5625C194.156 11.5625 197.562 12.6146 200.062 14.7188C202.562 16.8229 203.844 19.7083 203.906 23.375V38.3438C203.948 41.4479 204.427 43.8229 205.344 45.4688V46H194.812ZM188.219 39.125C189.531 39.125 190.615 38.8438 191.469 38.2812C192.344 37.7188 192.969 37.0833 193.344 36.375V30.9688H190.281C186.615 30.9688 184.781 32.6146 184.781 35.9062C184.781 36.8646 185.104 37.6458 185.75 38.25C186.396 38.8333 187.219 39.125 188.219 39.125ZM219.719 12.1875L220.062 16.1562C222.458 13.0938 225.677 11.5625 229.719 11.5625C233.99 11.5625 236.875 13.2604 238.375 16.6562C240.667 13.2604 243.979 11.5625 248.312 11.5625C255.167 11.5625 258.688 15.7083 258.875 24V46H248.312V24.6562C248.312 22.9271 248.021 21.6667 247.438 20.875C246.854 20.0833 245.792 19.6875 244.25 19.6875C242.167 19.6875 240.615 20.6146 239.594 22.4688L239.625 22.9062V46H229.062V24.7188C229.062 22.9479 228.781 21.6667 228.219 20.875C227.656 20.0833 226.583 19.6875 225 19.6875C222.979 19.6875 221.438 20.6146 220.375 22.4688V46H209.844V12.1875H219.719ZM299.875 46C299.5 45.3125 299.167 44.3021 298.875 42.9688C296.938 45.4062 294.229 46.625 290.75 46.625C287.562 46.625 284.854 45.6667 282.625 43.75C280.396 41.8125 279.281 39.3854 279.281 36.4688C279.281 32.8021 280.635 30.0312 283.344 28.1562C286.052 26.2812 289.99 25.3438 295.156 25.3438H298.406V23.5625C298.406 20.4583 297.062 18.9062 294.375 18.9062C291.875 18.9062 290.625 20.1354 290.625 22.5938H280.094C280.094 19.3229 281.479 16.6667 284.25 14.625C287.042 12.5833 290.594 11.5625 294.906 11.5625C299.219 11.5625 302.625 12.6146 305.125 14.7188C307.625 16.8229 308.906 19.7083 308.969 23.375V38.3438C309.01 41.4479 309.49 43.8229 310.406 45.4688V46H299.875ZM293.281 39.125C294.594 39.125 295.677 38.8438 296.531 38.2812C297.406 37.7188 298.031 37.0833 298.406 36.375V30.9688H295.344C291.677 30.9688 289.844 32.6146 289.844 35.9062C289.844 36.8646 290.167 37.6458 290.812 38.25C291.458 38.8333 292.281 39.125 293.281 39.125Z" fill="black"/>
<path d="M29.0938 102.875H11.4062V121H0.4375V75.5H30.875V83.9688H11.4062V94.4375H29.0938V102.875ZM54.4062 117.344C52.1771 120.198 49.1667 121.625 45.375 121.625C41.6667 121.625 38.8542 120.552 36.9375 118.406C35.0417 116.24 34.0938 113.135 34.0938 109.094V87.1875H44.625V109.156C44.625 112.052 46.0312 113.5 48.8438 113.5C51.2604 113.5 52.9792 112.635 54 110.906V87.1875H64.5938V121H54.7188L54.4062 117.344ZM81.5 121H70.9375V73H81.5V121ZM99.125 121H88.5625V73H99.125V121ZM145.531 108.906C145.531 107.302 144.958 106.052 143.812 105.156C142.688 104.26 140.698 103.333 137.844 102.375C134.99 101.417 132.656 100.49 130.844 99.5938C124.948 96.6979 122 92.7188 122 87.6562C122 85.1354 122.729 82.9167 124.188 81C125.667 79.0625 127.75 77.5625 130.438 76.5C133.125 75.4167 136.146 74.875 139.5 74.875C142.771 74.875 145.698 75.4583 148.281 76.625C150.885 77.7917 152.906 79.4583 154.344 81.625C155.781 83.7708 156.5 86.2292 156.5 89H145.562C145.562 87.1458 144.99 85.7083 143.844 84.6875C142.719 83.6667 141.188 83.1562 139.25 83.1562C137.292 83.1562 135.74 83.5938 134.594 84.4688C133.469 85.3229 132.906 86.4167 132.906 87.75C132.906 88.9167 133.531 89.9792 134.781 90.9375C136.031 91.875 138.229 92.8542 141.375 93.875C144.521 94.875 147.104 95.9583 149.125 97.125C154.042 99.9583 156.5 103.865 156.5 108.844C156.5 112.823 155 115.948 152 118.219C149 120.49 144.885 121.625 139.656 121.625C135.969 121.625 132.625 120.969 129.625 119.656C126.646 118.323 124.396 116.51 122.875 114.219C121.375 111.906 120.625 109.25 120.625 106.25H131.625C131.625 108.688 132.25 110.49 133.5 111.656C134.771 112.802 136.823 113.375 139.656 113.375C141.469 113.375 142.896 112.99 143.938 112.219C145 111.427 145.531 110.323 145.531 108.906ZM173.906 78.7812V87.1875H179.469V94.5H173.906V109.969C173.906 111.24 174.135 112.125 174.594 112.625C175.052 113.125 175.958 113.375 177.312 113.375C178.354 113.375 179.229 113.312 179.938 113.188V120.719C178.042 121.323 176.062 121.625 174 121.625C170.375 121.625 167.698 120.771 165.969 119.062C164.24 117.354 163.375 114.76 163.375 111.281V94.5H159.062V87.1875H163.375V78.7812H173.906ZM202.688 121C202.312 120.312 201.979 119.302 201.688 117.969C199.75 120.406 197.042 121.625 193.562 121.625C190.375 121.625 187.667 120.667 185.438 118.75C183.208 116.812 182.094 114.385 182.094 111.469C182.094 107.802 183.448 105.031 186.156 103.156C188.865 101.281 192.802 100.344 197.969 100.344H201.219V98.5625C201.219 95.4583 199.875 93.9062 197.188 93.9062C194.688 93.9062 193.438 95.1354 193.438 97.5938H182.906C182.906 94.3229 184.292 91.6667 187.062 89.625C189.854 87.5833 193.406 86.5625 197.719 86.5625C202.031 86.5625 205.438 87.6146 207.938 89.7188C210.438 91.8229 211.719 94.7083 211.781 98.375V113.344C211.823 116.448 212.302 118.823 213.219 120.469V121H202.688ZM196.094 114.125C197.406 114.125 198.49 113.844 199.344 113.281C200.219 112.719 200.844 112.083 201.219 111.375V105.969H198.156C194.49 105.969 192.656 107.615 192.656 110.906C192.656 111.865 192.979 112.646 193.625 113.25C194.271 113.833 195.094 114.125 196.094 114.125ZM231.938 113.5C233.417 113.5 234.562 113.104 235.375 112.312C236.188 111.5 236.583 110.375 236.562 108.938H246.438C246.438 112.646 245.104 115.688 242.438 118.062C239.792 120.438 236.375 121.625 232.188 121.625C227.271 121.625 223.396 120.083 220.562 117C217.729 113.917 216.312 109.646 216.312 104.188V103.75C216.312 100.333 216.938 97.3229 218.188 94.7188C219.458 92.0938 221.281 90.0833 223.656 88.6875C226.031 87.2708 228.844 86.5625 232.094 86.5625C236.49 86.5625 239.979 87.7812 242.562 90.2188C245.146 92.6562 246.438 95.9583 246.438 100.125H236.562C236.562 98.375 236.135 97.0312 235.281 96.0938C234.427 95.1562 233.281 94.6875 231.844 94.6875C229.115 94.6875 227.521 96.4271 227.062 99.9062C226.917 101.01 226.844 102.531 226.844 104.469C226.844 107.865 227.25 110.219 228.062 111.531C228.875 112.844 230.167 113.5 231.938 113.5ZM264.469 108.406L261.5 111.375V121H250.969V72.9688H261.5V98.4688L262.562 97.0625L270.5 87.1875H283.125L271.281 101.094L283.906 121H271.844L264.469 108.406ZM302.312 121V75.5H316.969C320.99 75.5 324.604 76.4167 327.812 78.25C331.021 80.0625 333.521 82.6354 335.312 85.9688C337.125 89.2812 338.042 93 338.062 97.125V99.2188C338.062 103.385 337.177 107.125 335.406 110.438C333.656 113.729 331.177 116.312 327.969 118.188C324.781 120.042 321.219 120.979 317.281 121H302.312ZM313.281 83.9688V112.562H317.094C320.24 112.562 322.656 111.448 324.344 109.219C326.031 106.969 326.875 103.635 326.875 99.2188V97.25C326.875 92.8542 326.031 89.5417 324.344 87.3125C322.656 85.0833 320.198 83.9688 316.969 83.9688H313.281ZM359.562 121.625C354.375 121.625 350.177 120.083 346.969 117C343.76 113.896 342.156 109.865 342.156 104.906V104.031C342.156 100.573 342.792 97.5208 344.062 94.875C345.354 92.2292 347.229 90.1875 349.688 88.75C352.146 87.2917 355.062 86.5625 358.438 86.5625C363.188 86.5625 366.938 88.0417 369.688 91C372.438 93.9375 373.812 98.0417 373.812 103.312V107.406H352.875C353.25 109.302 354.073 110.792 355.344 111.875C356.615 112.958 358.26 113.5 360.281 113.5C363.615 113.5 366.219 112.333 368.094 110L372.906 115.688C371.594 117.5 369.729 118.948 367.312 120.031C364.917 121.094 362.333 121.625 359.562 121.625ZM358.375 94.6875C355.292 94.6875 353.458 96.7292 352.875 100.812H363.5V100C363.542 98.3125 363.115 97.0104 362.219 96.0938C361.323 95.1562 360.042 94.6875 358.375 94.6875ZM391.125 108.469L396.469 87.1875H407.562L396.531 121H385.781L374.75 87.1875H385.875L391.125 108.469ZM426.625 121.625C421.438 121.625 417.24 120.083 414.031 117C410.823 113.896 409.219 109.865 409.219 104.906V104.031C409.219 100.573 409.854 97.5208 411.125 94.875C412.417 92.2292 414.292 90.1875 416.75 88.75C419.208 87.2917 422.125 86.5625 425.5 86.5625C430.25 86.5625 434 88.0417 436.75 91C439.5 93.9375 440.875 98.0417 440.875 103.312V107.406H419.938C420.312 109.302 421.135 110.792 422.406 111.875C423.677 112.958 425.323 113.5 427.344 113.5C430.677 113.5 433.281 112.333 435.156 110L439.969 115.688C438.656 117.5 436.792 118.948 434.375 120.031C431.979 121.094 429.396 121.625 426.625 121.625ZM425.438 94.6875C422.354 94.6875 420.521 96.7292 419.938 100.812H430.562V100C430.604 98.3125 430.177 97.0104 429.281 96.0938C428.385 95.1562 427.104 94.6875 425.438 94.6875ZM456.25 121H445.688V73H456.25V121ZM461.438 103.781C461.438 100.406 462.094 97.4062 463.406 94.7812C464.719 92.1354 466.604 90.1042 469.062 88.6875C471.521 87.2708 474.406 86.5625 477.719 86.5625C482.781 86.5625 486.771 88.1354 489.688 91.2812C492.604 94.4062 494.062 98.6667 494.062 104.062V104.438C494.062 109.708 492.594 113.896 489.656 117C486.74 120.083 482.781 121.625 477.781 121.625C472.969 121.625 469.104 120.188 466.188 117.312C463.271 114.417 461.698 110.5 461.469 105.562L461.438 103.781ZM471.969 104.438C471.969 107.562 472.458 109.854 473.438 111.312C474.417 112.771 475.865 113.5 477.781 113.5C481.531 113.5 483.448 110.615 483.531 104.844V103.781C483.531 97.7188 481.594 94.6875 477.719 94.6875C474.198 94.6875 472.292 97.3021 472 102.531L471.969 104.438ZM530.094 104.344C530.094 109.594 528.906 113.792 526.531 116.938C524.177 120.062 520.99 121.625 516.969 121.625C513.865 121.625 511.312 120.49 509.312 118.219V134H498.781V87.1875H508.625L508.938 90.3125C510.958 87.8125 513.615 86.5625 516.906 86.5625C521.073 86.5625 524.312 88.1042 526.625 91.1875C528.938 94.25 530.094 98.4688 530.094 103.844V104.344ZM519.562 103.688C519.562 97.6875 517.812 94.6875 514.312 94.6875C511.812 94.6875 510.146 95.5833 509.312 97.375V110.688C510.229 112.562 511.917 113.5 514.375 113.5C517.729 113.5 519.458 110.604 519.562 104.812V103.688ZM551.125 121.625C545.938 121.625 541.74 120.083 538.531 117C535.323 113.896 533.719 109.865 533.719 104.906V104.031C533.719 100.573 534.354 97.5208 535.625 94.875C536.917 92.2292 538.792 90.1875 541.25 88.75C543.708 87.2917 546.625 86.5625 550 86.5625C554.75 86.5625 558.5 88.0417 561.25 91C564 93.9375 565.375 98.0417 565.375 103.312V107.406H544.438C544.812 109.302 545.635 110.792 546.906 111.875C548.177 112.958 549.823 113.5 551.844 113.5C555.177 113.5 557.781 112.333 559.656 110L564.469 115.688C563.156 117.5 561.292 118.948 558.875 120.031C556.479 121.094 553.896 121.625 551.125 121.625ZM549.938 94.6875C546.854 94.6875 545.021 96.7292 544.438 100.812H555.062V100C555.104 98.3125 554.677 97.0104 553.781 96.0938C552.885 95.1562 551.604 94.6875 549.938 94.6875ZM590.094 96.7188L586.625 96.4688C583.312 96.4688 581.188 97.5104 580.25 99.5938V121H569.719V87.1875H579.594L579.938 91.5312C581.708 88.2188 584.177 86.5625 587.344 86.5625C588.469 86.5625 589.448 86.6875 590.281 86.9375L590.094 96.7188ZM594.969 110.781C596.635 110.781 598.021 111.281 599.125 112.281C600.229 113.26 600.781 114.521 600.781 116.062C600.781 117.604 600.229 118.875 599.125 119.875C598.021 120.854 596.635 121.344 594.969 121.344C593.281 121.344 591.885 120.844 590.781 119.844C589.698 118.844 589.156 117.583 589.156 116.062C589.156 114.542 589.698 113.281 590.781 112.281C591.885 111.281 593.281 110.781 594.969 110.781Z" fill="#2ECC71"/>
</svg>
